<svg width="24" height="24" viewBox="0 0 24 24" fill="none" xmlns="http://www.w3.org/2000/svg">
<path d="M21 20L4 20C3.44772 20 3 19.5523 3 19L3 6L20 6C20.5523 6 21 6.44772 21 7V13" stroke="#FFC700" stroke-width="2.1" stroke-linecap="round" stroke-linejoin="round"/>
<path d="M4.3258 20L20.2458 20C20.6923 20 21.0846 19.704 21.2073 19.2747L22.6359 14.2747C22.8184 13.6359 22.3387 13 21.6743 13L5.00007 13L3.36428 18.7253C3.18176 19.3641 3.66142 20 4.3258 20Z" stroke="#FFC700" stroke-width="2.1" stroke-linecap="round" stroke-linejoin="round"/>
<path d="M12 6L10.2929 4.29289C10.1054 4.10536 9.851 4 9.58579 4H4C3.44772 4 3 4.44772 3 5V6" stroke="#FFC700" stroke-width="2.1" stroke-linecap="round" stroke-linejoin="round"/>
</svg>
