<svg width="40" height="40" viewBox="0 0 40 40" fill="none" xmlns="http://www.w3.org/2000/svg">
<path d="M11.6666 31.6666C11.6666 28.9052 15.3976 26.6666 20 26.6666C24.6023 26.6666 28.3333 28.9052 28.3333 31.6666" stroke="white" stroke-width="2.5" stroke-linecap="round" stroke-linejoin="round"/>
<path d="M20 21.6666C22.7614 21.6666 25 19.428 25 16.6666C25 13.9052 22.7614 11.6666 20 11.6666C17.2386 11.6666 15 13.9052 15 16.6666C15 19.428 17.2386 21.6666 20 21.6666Z" stroke="white" stroke-width="2.5" stroke-linecap="round" stroke-linejoin="round"/>
<path d="M20 35C28.2843 35 35 28.2843 35 20C35 11.7157 28.2843 5 20 5C11.7157 5 5 11.7157 5 20C5 28.2843 11.7157 35 20 35Z" stroke="white" stroke-width="2.5" stroke-miterlimit="10" stroke-linecap="round" stroke-linejoin="round"/>
</svg>
